<svg version="1" xmlns="http://www.w3.org/2000/svg" width="1365.333" height="1365.333" viewBox="0 0 1024.000000 1024.000000">
	<path d="M499.7 89.6c-.1.1-7.2.5-15.7.8-8.5.4-17.1.9-19 1-8 .8-17.7 1.7-20 2.1-1.4.2-4.7.6-7.5 1-7.3.9-12.2 1.7-30.2 5.1-1.2.2-3.3.8-4.5 1.3-1.3.5-2.6.9-3.1.9-2.9.2-23.1 5.5-27.2 7.2-1.1.5-4.9 1.9-8.5 3.1-46.1 15.6-88.1 46.2-114.6 83.4-8.7 12.3-17.8 27.4-24.3 40.2L222 242h2.7c1.6.1 43.6.1 93.5.1h90.7l2.1 9.5c1.2 5.2 2.3 9.4 2.6 9.4.2 0 3.5-2.1 7.5-4.6 13-8.4 33.3-16.4 48.4-18.9 1.1-.2 4.7-.9 8-1.4 18.8-3.3 51.1-3.1 72 .5 16.9 2.8 37.7 9.8 47.7 16.1l3.7 2.3.3-6.3.3-6.2 99.8-.2c54.9 0 100.1-.4 100.4-.6 1.3-1.4-17.6-33.7-28.7-48.9-8.7-11.9-31.1-34.8-42-42.9-35.8-26.7-74.6-42.9-125-52.4-1.4-.3-3.6-.7-5-1-1.4-.2-4.5-.7-7-1-2.5-.4-5.6-.8-7-1-4.4-.7-10.3-1.4-17.5-2.1-3.8-.4-8.3-.8-10-1-8-.8-59.1-2.4-59.8-1.8zM209.8 242.8c-8.5.2-9.8.5-9.8 2 0 .9-2.5 12.7-5.6 26.2-3 13.5-5.8 25.6-6 26.9-.5 2.5-2.7 12.1-4.9 21.6-.8 3.3-2.6 11.4-4 18-1.5 6.6-2.9 12.8-3.1 13.7-.2 1-.6 2.8-.9 4-.2 1.3-.7 3.5-1.1 5-.3 1.5-.6 3.1-.6 3.5 0 .5-.4 1.7-.8 2.9-.5 1.1-1.1 3.6-1.4 5.5-.3 1.9-1.2 6.5-2.1 10.4-2.3 9.7-2.2 9-4.4 19-1.1 4.9-2.7 12.1-3.6 16-.9 3.8-1.9 8.1-2.1 9.5-.3 1.4-1.3 6.1-2.4 10.5-2.4 10.5-4 17.5-4.4 20-.2 1.1-1.3 5.8-2.4 10.5-2.4 9.8-9.2 40.3-9.9 44-.2 1.4-1 5-1.8 8-1.2 4.6-4.4 18.9-6 26.5-.3 1.1-2.5 11.2-5.1 22.5-2.5 11.3-4.7 21.2-4.9 22-.3 1.3-9.1 40.1-10 44-.2.8-1.5 6.7-2.9 13s-7 31.5-12.6 56c-5.5 24.5-10.2 45.4-10.4 46.5-.2 1.1-1.8 8.1-3.5 15.4-1.7 7.4-3.1 14.1-3.1 14.8 0 1.1 10.4 1.3 54.5 1.3 35.6 0 54.5-.3 54.6-1 .1-.6.2-1.3.3-1.8.8-3.1 1.7-7.1 2.1-8.9.3-1.3.7-3.3 1-4.5.2-1.2 1.6-7.6 3-14.2 1.5-6.7 3.1-13.6 3.7-15.4.8-2.7.2-6.1-3.6-21-17.7-68.8-24.5-145.4-21.4-240.7 3-91.4 17.5-164.2 45.2-227.7.9-2 1.2-3.8.8-4-.4-.2-5.1-.2-10.4 0zM806.3 242.8l-3.3.3 2 3.8c8.3 16.4 22.7 60.1 28.1 85.3l1.2 5.8h111.5v-47.5l.1-47.5h-2.7c-14.9-.3-134.5-.4-136.9-.2zM601.8 257.3c-.5 1.7-.2 511.6.3 512.1.8.8 13.8-8.5 20.8-15 29.4-27.2 46.9-78.3 53.5-156.4 2.6-30.5 2.7-32.8 3-70.5.7-73.1-4.1-126.8-15.4-171.7-11.9-47.1-28.8-76-56-95.9-5.2-3.8-5.8-4-6.2-2.6z"/>
	<path d="M405 269.3c-8.2 7.8-13.5 14.2-19.5 23.5-17.2 26.7-30.4 73-36 126.2-1.6 15.7-2.3 22.1-2.5 23-.2.6-9.1-40.6-20.3-92.9l-3.3-15.5-18.1.1c-9.9 0-18.5.3-19.2.7-.6.4-1.1 1.4-1.1 2.3 0 1.4-11.8 56.9-44.6 210.2-4.6 21.6-8.4 39.9-8.4 40.7 0 1.2 9.1 1.4 57.4 1.4h57.5l.5 5.2c.3 2.9 1.3 11.8 2.1 19.8 2.7 24.6 11.1 68.4 13.6 70 .4.3 8.6.5 18.3.5h17.5l.6 2.5c.4 1.4 2.4 10.6 4.6 20.5 4 18.5 11.8 53.8 12.4 56.5.2.8.4 1.8.4 2.2.2 1.3 11.4 7.1 22 11.5l10.6 4.3H420.2l-1.8-7.4c-1.7-7.3-1.8-7.5-7.8-11.9-10.2-7.5-23.5-22.3-29.5-32.7-6.3-10.9-16.3-34.6-17.8-42.1l-.6-2.9-76.1.2-76.1.3-2.8 12.5c-1.5 6.9-3.7 17.2-4.9 23l-2.1 10.5 2.5 8c17.5 55.2 46.8 101.6 82.3 130.3 3.9 3.1 7.2 5.9 7.5 6.3 1.4 1.6 21.7 14.4 29.8 18.8 28.8 15.6 66 27.3 106.2 33.6 1.9.3 4.6.7 6 1 3.6.6 10.4 1.4 18.5 2 3.9.3 8.6.8 10.5 1 18.5 2.2 77 2.2 97 .1 1.9-.3 6.7-.7 10.5-1 3.9-.4 8.1-.8 9.5-1.1 1.4-.2 4.8-.7 7.5-1 25.2-2.9 69.4-14.2 84.9-21.6 2.2-1.1 4.3-1.9 4.8-1.9.4 0 5.6-2.3 11.5-5.2C737 878 769.6 847 795.2 800.5c14.6-26.5 30.3-68.9 36.8-99.5.4-1.9 1.7-7.8 2.8-13 1.2-5.2 2.6-12.2 3.1-15.5 1.5-8.9 2-11.8 2.5-14 .4-2.1 1.6-10.4 2.1-14.5.2-1.4.6-5 1-8 .3-3 .8-6.6 1-8 .4-2.9 1.2-10.1 2-18.5.3-3.3.8-8.6 1.1-11.8l.5-5.7H711.5v189.5l-55.2.3-55.3.2v-10.9l-8.2 3.9c-22.9 10.6-47.5 15.2-81.3 15.2-12.5 0-25.7-.7-32-1.8-1.6-.3-4.6-.7-6.5-1-1.9-.2-7.8-1.4-13-2.6l-9.5-2.3 39.8-.3c38.7-.2 39.8-.3 39.2-2.1-.3-1.1-.7-2.8-.9-3.8-.6-2.9-7.6-34.6-8.3-37.3-.3-1.4-.7-3-.9-3.6-.1-.7-1-4.5-1.9-8.5-.9-4.1-1.9-8.5-2.1-9.8-.3-1.2-1.2-5.3-2-9-.9-3.6-1.7-7.3-1.9-8.1-1.7-7.9-4.5-19.9-4.9-21.1-.3-.8-.7-2.8-1-4.4-.2-1.7-1.9-9.1-3.6-16.5-1.7-7.4-3.3-14.4-3.6-15.5-.2-1.1-.6-3.1-.9-4.5-.3-1.4-.7-3.4-.9-4.5-.3-1.1-1.2-5.2-2.1-9-.9-3.9-1.8-7.7-2-8.6-.2-.9-1.7-7.9-3.5-15.5-4.4-19.3-11.7-52.1-14.1-62.9-1.1-5-6.1-27-11-49-5-22-9.7-42.7-10.4-46-.7-3.3-3.4-15.5-6-27-2.6-11.6-4.8-21.5-4.9-22-.3-1.1-3.9-17.2-6.7-29-1-4.4-2.1-9.5-2.4-11.3-.3-1.8-1.2-5.8-2-9-1.4-5.2-3.9-16.1-5.1-22.2-.3-1.4-1.3-6.1-2.4-10.5-1-4.4-3.5-15.4-5.5-24.5-4.6-20.8-5.4-24-6.3-24-.4 0-3.6 2.8-7.2 6.3zm-53.6 193.4c2.1 9.8 3.9 18.5 4.1 19.3 1.1 5.2 17.8 82.8 18 84 2.6 11.2 4.6 22.3 4.1 22.7-.7.7-29.5.7-30.2 0-2.5-2.5-3.9-83.4-2-121.7.4-9.1.8-17.7.9-19.3.2-5.9 1.5-2 5.1 15z"/>
	<path d="M711.5 416.4c0 43.2.3 78.7.6 79.1.3.3 31.7.5 69.8.5h69.2l-.2 26.8c-.2 23.5-.8 42.4-2 62.7l-.4 6 27.3.1 27.2.1v-95.2l-24.7.1c-13.7 0-25.5-.3-26.4-.7-1.1-.6-1.6-2.3-1.6-6.6-.1-6.5-1.3-34.1-1.8-41.8-.2-2.8-.6-9.1-.9-14-.4-5-.8-10-1-11-.2-1.1-.7-5.4-1-9.5-.4-4.1-.9-8.6-1-10-.2-1.4-.7-5.2-1.1-8.5-.3-3.3-.9-7.4-1.2-9-.3-1.7-.6-4.4-.8-6-.4-3.7-1.1-7.5-3.1-18.5-.9-4.7-1.7-9.4-1.9-10.5-.2-1.1-.8-4.4-1.5-7.3l-1.2-5.2H711.5v78.4z"/>
</svg>